Coordinates
version=1
nRows=12
nColumns=24
inDegrees=yes

Units are S.I. units (second, meters, Newtons, ...)
Angles are in degrees.

endheader
time	pelvis_tilt	pelvis_list	pelvis_rotation	pelvis_tx	pelvis_ty	pelvis_tz	hip_flexion_r	hip_adduction_r	hip_rotation_r	knee_angle_r	ankle_angle_r	subtalar_angle_r	mtp_angle_r	hip_flexion_l	hip_adduction_l	hip_rotation_l	knee_angle_l	ankle_angle_l	subtalar_angle_l	mtp_angle_l	lumbar_extension	lumbar_bending	lumbar_rotation
      0.43300000	     -8.94102574	      3.12625326	      0.92761184	     -0.81871214	      1.02389147	      0.30040896	     38.49674265	     -2.27590096	     -1.22894802	     -5.96792999	      9.39529689	     -5.73816885	      6.94872337	     -7.79631054	      4.72063559	      3.26320460	     -7.75673110	     21.53834943	      9.62286361	      0.28149974	     -6.32483694	     -3.05606094	     -3.57065810
      0.43716667	     -8.94138522	      3.13901756	      1.08049643	     -0.81264087	      1.02287756	      0.30048755	     38.41783839	     -2.30638283	     -1.04004368	     -6.32219692	      9.40337739	     -5.82231818	      6.95145432	     -7.94231388	      4.69416703	      3.36534193	     -8.20973012	     21.63086615	      9.67670342	      0.29347234	     -6.30383443	     -2.96395252	     -3.59754952
      0.44133333	     -8.97987386	      3.13026135	      1.23206000	     -0.80650125	      1.02184022	      0.30061772	     38.33878033	     -2.30731483	     -0.76204725	     -6.62594638	      9.26810999	     -6.08614210	      6.96389069	     -7.98652224	      4.62675931	      3.24799784	     -8.79228289	     21.77592837	     10.09635685	      0.36189305	     -6.24154247	     -2.82297458	     -3.75464350
      0.44550000	     -8.99140120	      3.11235803	      1.38399054	     -0.80032464	      1.02088780	      0.30072864	     38.23103793	     -2.30573381	     -0.57265117	     -6.95999274	      9.14745377	     -6.23997443	      6.98802333	     -8.05728440	      4.54978446	      3.16693852	     -9.38622604	     21.89586759	     10.44273192	      0.47188212	     -6.20374631	     -2.68110552	     -3.78605570
      0.44966667	     -9.01284814	      3.09927628	      1.53367653	     -0.79412680	      1.01996809	      0.30085476	     38.12594753	     -2.30636672	     -0.38911138	     -7.29801978	      8.97784725	     -6.40889561	      7.02071664	     -8.10376313	      4.47736512	      3.11554517	    -10.00524721	     21.97377610	     10.75103285	      0.60965251	     -6.15048730	     -2.54170458	     -3.84665319
      0.45383333	     -9.03616735	      3.07122851	      1.68538523	     -0.78787548	      1.01910244	      0.30098401	     38.00732013	     -2.29530862	     -0.23768287	     -7.62629687	      8.75162219	     -6.58438147	      7.06305348	     -8.12669653	      4.38294353	      3.02344563	    -10.66963671	     22.03145974	     11.10036837	      0.78616965	     -6.08536100	     -2.38138666	     -3.89667296
      0.45800000	     -9.06063865	      3.04548096	      1.82463732	     -0.78160978	      1.01827859	      0.30113085	     37.89463853	     -2.28008145	     -0.10660440	     -7.97433917	      8.46430027	     -6.78081170	      7.12593088	     -8.12595121	      4.28890069	      2.89666068	    -11.38011688	     22.07007543	     11.48643447	      1.04009670	     -6.02672440	     -2.22435181	     -3.93464196
      0.46216667	     -9.07664769	      3.01087973	      1.97272914	     -0.77533075	      1.01754322	      0.30128452	     37.75213733	     -2.26237508	      0.00770042	     -8.28745851	      8.11415600	     -6.97848538	      7.21488440	     -8.10793368	      4.17842937	      2.76611361	    -12.14008369	     22.07146485	     11.88895982	      1.39909455	     -5.97496983	     -2.06626426	     -3.96461116
      0.46633333	     -9.12201721	      2.95616759	      2.10612343	     -0.76897025	      1.01682132	      0.30144127	     37.64450520	     -2.22139744	      0.07503622	     -8.62137309	      7.71079332	     -7.20572018	      7.29147924	     -8.05157922	      4.05036004	      2.64232609	    -12.91552832	     22.02339864	     12.23446114	      1.72365183	     -5.86772694	     -1.85523859	     -3.99368901
      0.47050000	     -9.13833175	      2.89822655	      2.23713861	     -0.76263822	      1.01621377	      0.30161528	     37.50312276	     -2.17791080	      0.12263124	     -8.94580044	      7.24521538	     -7.43590959	      7.37939295	     -7.99150381	      3.91146022	      2.48961980	    -13.75373451	     21.94818641	     12.63942405	      2.11424309	     -5.80663380	     -1.65122805	     -3.99978919
      0.47466667	     -9.18140600	      2.83222048	      2.37054222	     -0.75626633	      1.01563845	      0.30177191	     37.40322182	     -2.13754405	      0.07247013	     -9.30183333	      6.79138985	     -7.53705372	      8.11829106	     -7.87835508	      3.76249428	      2.33269645	    -14.63135560	     21.75971326	     13.00102121	      5.31853371	     -5.70920041	     -1.46062808	     -3.89932832
      0.47883333	     -9.19280116	      2.75435591	      2.48222182	     -0.74989119	      1.01519914	      0.30197901	     37.25280444	     -2.06752227	      0.11632179	     -9.61870135	      6.19074990	     -7.88705408	      8.11591940	     -7.79138058	      3.60406551	      2.20765223	    -15.52032414	     21.56693618	     13.29349784	      5.42857321	     -5.64113431	     -1.20998781	     -3.98094801
